<?xml version="1.0" standalone="no"?>
<!DOCTYPE svg PUBLIC "-//W3C//DTD SVG 20010904//EN"
 "http://www.w3.org/TR/2001/REC-SVG-20010904/DTD/svg10.dtd">
<svg version="1.0" xmlns="http://www.w3.org/2000/svg"
 width="1290.000000pt" height="85.000000pt" viewBox="0 0 1290.000000 85.000000"
 preserveAspectRatio="xMidYMid meet">

<g transform="translate(0.000000,85.000000) scale(0.100000,-0.100000)"
fill="#0087c8" stroke="none">
<path d="M1537 796 c-112 -31 -212 -135 -243 -256 -37 -146 18 -286 150 -382
l39 -28 -711 0 -712 0 0 -30 0 -30 6393 0 6394 0 -5 30 -4 30 -2341 0 -2340 0
46 31 c55 36 99 89 130 156 34 74 32 207 -5 285 -76 163 -254 242 -426 189
-57 -17 -83 -32 -130 -76 -82 -76 -116 -151 -116 -260 0 -124 49 -216 158
-296 l39 -29 -1444 0 c-1419 1 -1443 1 -1408 20 43 23 111 95 137 147 11 22
25 66 31 99 21 118 -18 232 -108 317 -75 70 -127 90 -236 91 -77 1 -98 -3
-146 -25 -79 -37 -133 -90 -171 -167 -30 -60 -33 -75 -33 -157 0 -72 5 -100
22 -138 31 -67 75 -120 130 -156 l46 -31 -1443 0 -1443 0 54 39 c63 46 111
115 133 190 21 73 20 126 -4 202 -59 186 -243 286 -433 235z m238 -30 c214
-98 269 -378 106 -545 -56 -58 -105 -84 -184 -101 -103 -21 -219 14 -295 88
-193 188 -112 506 147 579 63 18 161 9 226 -21z m3194 -3 c67 -32 122 -86 158
-155 25 -48 28 -63 28 -153 0 -89 -3 -105 -27 -150 -51 -97 -124 -154 -226
-180 -155 -40 -311 35 -384 183 -29 59 -33 76 -33 147 1 65 6 91 26 135 84
181 286 257 458 173z m3187 -3 c73 -36 126 -91 162 -169 21 -45 26 -71 27
-136 0 -71 -4 -88 -33 -147 -94 -190 -323 -252 -498 -133 -57 40 -85 74 -120
148 -34 74 -34 190 1 265 34 73 69 116 124 151 104 67 226 75 337 21z"/>
<path d="M1535 580 c-54 -54 -97 -102 -94 -104 3 -3 47 37 99 89 l95 95 97
-97 c54 -54 98 -93 98 -88 0 6 -44 54 -98 108 l-97 97 -100 -100z"/>
<path d="M1557 546 l-77 -71 0 -98 0 -98 58 3 57 3 3 63 3 62 34 0 34 0 3 -62
3 -63 58 -3 57 -3 0 99 0 100 -77 70 -78 69 -78 -71z m213 -163 l0 -83 -40 0
-40 0 0 60 0 60 -55 0 -55 0 0 -60 0 -60 -40 0 -40 0 0 82 0 82 67 68 67 68
68 -67 68 -67 0 -83z"/>
<path d="M4600 455 l0 -175 225 0 225 0 0 175 0 175 -225 0 -225 0 0 -175z
m430 0 l0 -165 -210 0 -210 0 0 165 0 165 210 0 210 0 0 -165z"/>
<path d="M4663 579 c-31 -11 -40 -54 -18 -79 23 -26 57 -25 80 0 36 40 -10 99
-62 79z m52 -43 c0 -36 -26 -56 -49 -37 -16 14 -22 52 -9 65 4 4 19 6 33 4 20
-2 25 -8 25 -32z"/>
<path d="M4830 580 c0 -6 37 -10 90 -10 53 0 90 4 90 10 0 6 -37 10 -90 10
-53 0 -90 -4 -90 -10z"/>
<path d="M4873 503 c26 -2 68 -2 95 0 26 2 4 3 -48 3 -52 0 -74 -1 -47 -3z"/>
<path d="M4630 395 l0 -55 55 0 55 0 0 55 0 55 -55 0 -55 0 0 -55z m90 0 c0
-33 -2 -35 -35 -35 -33 0 -35 2 -35 35 0 33 2 35 35 35 33 0 35 -2 35 -35z"/>
<path d="M4835 430 c-4 -6 27 -10 84 -10 54 0 91 4 91 10 0 6 -35 10 -84 10
-47 0 -88 -4 -91 -10z"/>
<path d="M4873 353 c26 -2 68 -2 95 0 26 2 4 3 -48 3 -52 0 -74 -1 -47 -3z"/>
<path d="M7935 646 c-37 -16 -102 -87 -111 -121 -7 -30 -12 -31 -30 -7 -7 9
-14 12 -14 6 0 -6 9 -23 21 -38 l21 -26 28 22 c36 28 39 46 5 24 -29 -19 -30
-17 -11 27 21 49 79 98 133 113 39 10 42 13 18 13 -16 0 -43 -6 -60 -13z"/>
<path d="M8001 605 c0 -13 -12 -25 -31 -32 -30 -11 -48 -49 -36 -79 3 -9 20
-21 36 -27 29 -11 30 -14 30 -69 0 -32 -3 -58 -6 -58 -16 0 -46 24 -53 42 -4
13 -10 17 -14 11 -10 -15 31 -63 54 -63 13 0 19 -7 20 -22 0 -23 0 -23 9 -2 5
12 20 24 35 28 58 15 58 93 0 120 -32 16 -35 20 -35 61 0 42 2 45 26 45 14 0
23 4 19 10 -3 6 -15 10 -25 10 -11 0 -20 9 -23 23 -4 20 -4 20 -6 2z m-1 -90
c0 -44 0 -44 -25 -33 -27 12 -34 45 -13 66 25 25 38 13 38 -33z m48 -81 c32
-22 30 -71 -4 -84 -14 -6 -27 -10 -30 -10 -2 0 -4 25 -4 55 0 59 4 63 38 39z"/>
<path d="M8162 427 c-28 -29 -29 -46 -2 -22 25 22 26 6 4 -42 -21 -42 -70 -81
-126 -98 -32 -10 -36 -14 -18 -14 65 -1 170 86 170 141 0 23 16 23 29 1 5 -10
12 -16 15 -13 6 7 -33 70 -43 70 -4 0 -17 -10 -29 -23z"/>
</g>
</svg>
