<svg xmlns="http://www.w3.org/2000/svg" viewBox="0 0 1024 100" role="img" aria-label="Fußnotenzeile">
  <rect width="1024" height="100" fill="#fff"/>
  <g fill="none" stroke="#111" stroke-width="1.8" stroke-linecap="round" stroke-linejoin="round">
    <circle cx="128" cy="34" r="28"/>
    <path d="M110 35l18-17 18 17"/>
    <path d="M116 34v18h24V34"/>
    <path d="M124 52V41h9v11"/>
    <circle cx="384" cy="34" r="28"/>
    <rect x="370" y="20" width="28" height="31"/>
    <path d="M404 24h-14M404 34h-14M404 44h-14"/>
    <rect x="375" y="25" width="6" height="6"/>
    <rect x="375" y="39" width="6" height="6"/>
    <circle cx="640" cy="34" r="28"/>
    <path d="M624 32l7 7 12-18"/>
    <path d="M654 18v33M664 25c-3-5-15-7-19-1-5 8 16 8 14 17-2 8-16 7-21 1"/>
  </g>
  <rect x="0" y="62" width="1024" height="6" fill="#0088c7"/>
</svg>
